<?xml version="1.0" ?><svg height="48" id="svg8" version="1.1" viewBox="0 0 12.7 12.7" width="48" xmlns="http://www.w3.org/2000/svg" xmlns:cc="http://creativecommons.org/ns#" xmlns:dc="http://purl.org/dc/elements/1.1/" xmlns:inkscape="http://www.inkscape.org/namespaces/inkscape" xmlns:rdf="http://www.w3.org/1999/02/22-rdf-syntax-ns#" xmlns:sodipodi="http://sodipodi.sourceforge.net/DTD/sodipodi-0.dtd" xmlns:svg="http://www.w3.org/2000/svg"><defs id="defs2"/><g id="layer2" style="display:inline"><path d="M 1.9419934,0.52968 C 1.1684334,0.52938 0.52938342,1.16843 0.52968342,1.942 v 8.82013 c 0.002,0.77227 0.64003998,1.40849 1.41230998,1.40819 h 8.8201396 c 0.770973,-0.002 1.406601,-0.63721 1.408183,-1.40819 V 1.942 c 3e-4,-0.77227 -0.635913,-1.41073 -1.408183,-1.41232 z m 0,1.05885 h 8.8201396 c 0.200099,0.001 0.351994,0.1531 0.351916,0.35347 v 8.81807 c -4.23e-4,0.20054 -0.153439,0.35357 -0.353983,0.35398 H 1.9419934 c -0.20037,8e-5 -0.35222,-0.15182 -0.35346,-0.35192 V 1.942 c -8e-5,-0.20131 0.15215,-0.35355 0.35346,-0.35347 z m 7.061591,1.59474 v 0.002 c -1.454512,5.8e-4 -2.645317,1.19016 -2.645317,2.6448 0,3.4e-4 -1e-6,7.1e-4 0,0.001 v 0.52762 c -0.352778,0 -0.705555,0 -1.058333,0 v 1.05833 c 0.352778,0 0.705555,0 1.058333,0 v 3.6964 h 1.058333 V 7.41701 c 0.705556,0 1.411111,0 2.116667,0 V 6.35867 c -0.705556,0 -1.411111,0 -2.116667,0 v -0.52762 -0.001 c 0,-0.88267 0.704453,-1.58746 1.586984,-1.58801 0.352777,0 0.705555,0 1.0583326,0 V 3.1837 c -0.3527776,0 -0.7055556,0 -1.0583326,0 z" id="path1087" style="color:#000000;font-style:normal;font-variant:normal;font-weight:normal;font-stretch:normal;font-size:medium;line-height:normal;font-family:sans-serif;font-variant-ligatures:normal;font-variant-position:normal;font-variant-caps:normal;font-variant-numeric:normal;font-variant-alternates:normal;font-feature-settings:normal;text-indent:0;text-align:start;text-decoration:none;text-decoration-line:none;text-decoration-style:solid;text-decoration-color:#000000;letter-spacing:normal;word-spacing:normal;text-transform:none;writing-mode:lr-tb;direction:ltr;text-orientation:mixed;dominant-baseline:auto;baseline-shift:baseline;text-anchor:start;white-space:normal;shape-padding:0;clip-rule:nonzero;display:inline;overflow:visible;visibility:visible;opacity:1;isolation:auto;mix-blend-mode:normal;color-interpolation:sRGB;color-interpolation-filters:linearRGB;solid-color:#000000;solid-opacity:1;vector-effect:none;fill:#000000;fill-opacity:1;fill-rule:nonzero;stroke:none;stroke-width:1.05833328;stroke-linecap:round;stroke-linejoin:round;stroke-miterlimit:4;stroke-dasharray:none;stroke-dashoffset:0;stroke-opacity:1;paint-order:normal;color-rendering:auto;image-rendering:auto;shape-rendering:auto;text-rendering:auto;enable-background:accumulate"/></g></svg>