<?xml version="1.0" encoding="UTF-8"?>
<!DOCTYPE svg PUBLIC "-//W3C//DTD SVG 1.1//EN" "http://www.w3.org/Graphics/SVG/1.1/DTD/svg11.dtd">
<!-- Creator: CorelDRAW X6 -->
<svg xmlns="http://www.w3.org/2000/svg" xml:space="preserve" width="16.9719mm" height="27.234mm" version="1.1" style="shape-rendering:geometricPrecision; text-rendering:geometricPrecision; image-rendering:optimizeQuality; fill-rule:evenodd; clip-rule:evenodd"
viewBox="0 0 1204 1932"
 xmlns:xlink="http://www.w3.org/1999/xlink">
 <defs>
  <style type="text/css">
   <![CDATA[
    .fil0 {fill:#434242}
   ]]>
  </style>
 </defs>
 <g id="Layer_x0020_1">
  <metadata id="CorelCorpID_0Corel-Layer"/>
  <g id="_632742096">
   <path class="fil0" d="M667 1197c3,-14 3,-14 12,-22l18 -2c-7,12 -16,20 -30,24zm-14 -91c42,-6 70,16 68,57l-44 2c-8,-16 -18,-44 -24,-59zm4 -104l-29 14c-36,7 -75,2 -85,-36 36,7 69,27 114,22zm-453 -63c13,3 3,-4 10,7l24 84c21,64 43,59 16,79 -25,-11 -62,-139 -50,-171zm238 -57c0,1 -1,11 -1,13 -2,29 4,57 -5,69 -3,-4 -3,-2 -4,-10 0,-6 1,-8 1,-13 2,-33 -14,-58 4,-72 5,6 5,2 6,14zm-89 182c-4,-19 -29,-51 -18,-114 6,-32 50,-63 63,-65l-11 52c13,5 13,1 24,8l-1 55c24,-2 14,2 22,-10 3,-5 0,-2 3,-9 10,-19 11,2 13,-23 0,-5 -1,-18 0,-25 26,-13 8,7 21,-23 36,10 57,60 71,92 8,18 31,32 37,63 -25,2 -79,-7 -113,-7 -55,0 -62,16 -91,25 -6,-4 -2,-1 -8,-5l-14 -12zm46 -208c-1,-72 -34,-109 76,-95 -2,16 -3,15 -12,25 13,18 11,-3 8,21 -2,18 -2,0 7,21 -19,16 1,11 -12,32l-66 -4zm116 -103c0,42 17,-20 14,41 -1,16 -2,34 -3,50 -1,32 0,64 -5,97 -10,-2 -18,-15 -26,-23l-23 -19c-5,-4 -2,0 -7,-6 -11,-29 22,-26 17,-96 -1,-9 -2,-5 -2,-16 1,-35 2,-11 -7,-38 7,-15 14,-26 28,-31 16,16 8,26 14,39zm-56 -6c2,-15 18,-46 36,-53 -3,13 -11,22 -17,30 -5,6 -8,10 -11,14 -4,5 -3,6 -8,9zm-95 -99c40,-11 47,56 7,66 -18,5 -35,-9 -35,-26 0,-23 10,-34 27,-39zm176 41c1,-1 1,-3 1,-3 8,-20 -1,-9 10,-16 2,4 13,-9 0,13 0,0 -9,9 -11,10 -11,7 -19,9 -28,6 18,-13 7,-5 26,-10zm-51 -51c-5,18 0,34 -4,48 -4,17 -20,20 -21,26 -2,-27 15,-54 25,-74zm-64 54c-3,-34 -13,-58 10,-75 2,23 -2,58 -10,75zm83 -62c5,-8 16,-7 27,-5l-14 15c-9,-8 -6,-1 -13,-10zm-54 -33c2,-15 5,-14 8,-17 8,10 11,10 19,20l-28 65 2 -68zm-33 -25l16 9c-6,7 -2,8 -16,7l0 -17zm168 -8c9,12 5,9 -4,15 -3,-6 -4,0 -1,-10 0,-1 4,-5 5,-5zm-107 1c5,15 5,8 -3,21l-9 -9 13 -12zm-80 -4c11,21 8,7 11,35 1,0 3,1 4,1 10,2 -1,6 21,-3l-20 28c-9,-14 -25,-36 -27,-57l11 -4zm0 0c3,-11 -5,-3 7,-10l7 12 -13 -1zm-13 -21c1,16 -5,29 -17,36 -40,22 -57,-51 -1,-55l18 19zm92 -24l2 30c-11,12 -46,49 -60,6 16,7 21,17 38,6 12,-8 14,-21 12,-39l7 -2zm7 32c3,-31 0,-14 11,-16 4,13 4,15 -11,16zm-85 -14c-13,-6 -9,-2 -10,-19 10,0 14,-5 16,7 2,13 -6,12 -6,12zm40 -21c-37,34 40,41 11,-1 14,6 16,10 12,27 -3,14 -11,13 -28,13 -8,-15 -8,-5 -13,-26l17 -13zm38 3c0,-1 -1,-11 -1,-12 3,-5 6,-5 11,-8 -2,25 2,15 -11,20zm-13 -38c0,21 6,11 -15,14 5,-14 1,-10 15,-14zm-36 -3c7,11 5,2 0,12 -13,-9 -9,-6 0,-12zm-58 -22c3,16 9,23 16,37 -8,-14 -34,-31 -45,-50 -8,-13 -7,-27 9,-13 10,9 -1,15 20,26zm-21 609l10 21c-27,22 -85,46 -93,90l7 -8c16,-19 25,-34 49,-51 16,-11 61,-34 79,-40 -6,47 -5,124 17,159 7,-8 3,4 3,-8 1,-13 -19,-34 -18,-116 1,-38 2,-35 11,-40 7,11 -1,67 2,89 3,28 16,60 17,80 -32,20 -67,5 -81,79 -8,48 20,101 45,120 -23,-32 -47,-58 -39,-119 13,-100 163,-84 183,-70 -23,-31 -62,-16 -97,-12 -20,-33 -26,-98 -22,-140 2,-28 1,-31 26,-33 2,37 -4,100 10,138 6,16 -1,7 11,15 -2,-16 -32,-140 -5,-154 7,19 2,57 6,81 2,11 6,24 9,36 4,14 5,23 16,32 -8,-44 -35,-98 -17,-148 27,-5 71,3 97,8 88,19 99,99 72,128 -6,6 -22,19 -31,23l-34 8c-1,0 -2,1 -3,1 -1,1 -2,1 -3,2 -1,1 -3,1 -3,2 -1,0 -2,1 -3,2 70,-6 59,-22 84,-33 21,-9 20,1 38,-16 30,-29 17,-13 33,-19 2,-68 -34,-72 -91,-74 -16,-30 -35,-14 -51,-38l-18 -41c28,4 34,9 65,2 41,-9 25,-15 48,-28 11,4 -1,-6 11,11 1,1 1,2 2,4 9,-41 58,-73 92,-92 13,-7 37,-13 44,-18 -28,-12 -92,42 -106,55 -25,26 -9,20 -43,31 -48,15 -84,16 -132,-12 -28,-17 -19,-23 -17,-62 2,-47 -4,-126 9,-161l-25 4 1 -41c23,-14 68,-16 46,-67 -11,-27 -41,-41 -73,-7 7,-23 13,-27 21,-46 21,0 22,8 44,-3 25,-13 11,-4 37,-1l9 -10 -4 -19c-33,8 -15,-1 -19,-4 1,-11 2,-3 -1,-14 -5,-17 0,-5 -7,-9l-3 0c23,54 -42,72 -56,44 -2,-16 0,-11 1,-23 1,-17 -6,-29 14,-37l1 -9c-15,-5 -12,1 -13,-23 -1,-15 0,-21 -2,-36l-2 -14c-11,87 16,84 -13,93l3 -33 -22 -1 -8 -23c-42,9 -13,11 -39,-1 -22,9 0,14 -38,15 -10,-22 -11,-23 -21,-29 -6,-16 -59,-90 -72,-111 -12,-20 -25,-36 -36,-55 -6,-10 -28,-53 -35,-57 2,13 42,71 53,89 12,19 53,77 54,96 -11,7 -24,12 -37,18 -47,23 -56,32 -119,55l-155 71c20,-2 111,-46 147,-61 25,-10 52,-20 76,-31 24,-11 44,-26 74,-35 29,21 35,37 55,61 11,14 12,7 5,26 -18,-2 -11,-7 -38,-4 -15,25 -34,48 1,67 16,9 35,-8 44,60 -19,-5 -25,-12 -41,0 -19,14 -31,41 -11,65 15,18 22,9 31,20l5 5c31,12 11,36 10,45 -3,29 26,99 -14,110 -12,4 -19,1 -28,-6l-22 -19c12,32 12,16 34,35 -9,17 -29,36 -30,62 -1,31 7,56 8,82 -11,7 -21,11 -33,20 -16,13 -12,13 -33,23 -15,-37 -16,-11 -37,-92 -10,-39 -9,-27 -4,-59 2,-14 -29,-5 -40,-5 15,31 15,93 33,133 39,90 26,44 -3,109 -18,-5 -3,0 -13,-6 -1,-1 -4,-3 -5,-4l-5 -4c11,24 11,22 22,27 12,-12 15,-27 23,-40 8,-13 12,-13 15,-19 10,-15 -2,-12 42,-52 11,-10 26,-19 45,-22 6,7 4,5 10,11z"/>
   <path class="fil0" d="M835 1205c-1,-21 3,-49 6,-70 3,-34 -7,-49 26,-52 -1,26 -2,51 -2,77 -1,33 3,48 -29,45zm34 -150l-24 0 13 -156c2,-33 -3,-33 27,-34l-10 93c-3,28 -3,74 -7,97zm4 -301c-11,-25 2,-92 2,-129l28 3c1,22 -1,53 -2,77 -1,54 -2,48 -28,49zm38 -267l-5 96 -28 3c-10,-22 -4,-69 -2,-94l36 -5zm-25 -139c13,-7 23,-7 38,-9 3,16 -1,67 -1,88 -1,43 -4,38 -46,34 -5,-16 4,-95 9,-113zm-3 -121c0,-19 10,-6 7,-41 -1,-21 -10,-76 1,-97 12,46 26,137 4,181l-13 -44zm-49 1c-9,-34 -33,-49 -39,-77 17,7 17,12 26,26 20,30 44,50 43,103 -2,-10 -25,-44 -30,-52zm0 0c4,16 36,93 52,94 -4,-16 -19,-54 -7,-67 6,13 16,68 15,80l-16 4c-2,38 -5,77 -9,115 -4,37 1,85 -5,120 -21,-9 -6,-24 -36,-27 5,10 31,15 37,70 2,20 0,86 -3,104 -8,46 -6,24 -16,38 -16,21 -9,57 -8,78l0 15c4,15 4,4 13,18 -7,86 -14,172 -19,257 -1,23 -5,38 -16,51l-121 90c21,-4 44,-27 66,-41 11,-7 21,-13 32,-22 23,-17 18,-21 33,-24l-3 33 40 2 11 -144 -32 -3c15,-9 15,-4 34,-5 -1,-57 4,-97 8,-150 66,28 26,140 -7,190 16,-6 22,-8 32,-44 6,-19 13,-37 16,-59 9,-67 -23,-82 -40,-103l5 -32 21 -4c-12,-13 -46,-4 -69,-11 3,-16 -1,-9 11,-15 -4,-7 -7,-9 -13,-13 5,-6 9,-4 16,-19 -17,-4 -11,0 -17,-10 21,-38 3,-5 8,-31 18,-9 50,-9 69,-2l7 30c1,-16 6,-33 3,-45 -3,-9 -16,-26 -19,-34 -9,-24 2,-67 -1,-95l-35 -3 -3 -15c28,-21 43,7 44,-41l3 -84c-18,4 -33,14 -45,1 13,-17 36,-7 50,-3l8 -137 -29 0c-10,-37 -6,-34 5,-69 9,-28 7,-38 22,-65 20,-35 46,-77 60,-111l-51 81c-6,-49 25,-125 30,-172l-14 0c-5,21 -12,26 -14,50 2,-5 13,-27 15,-33 3,17 -19,100 -25,146 -3,27 -1,35 -16,48 -8,-53 23,-103 28,-160 -2,3 -3,3 -5,9 -7,16 -15,68 -25,88 -5,-5 -2,2 -6,-11 -1,-4 -2,-12 -3,-18l-16 -102c-6,10 -6,165 -6,191 -3,-17 -18,-47 -21,-63 0,16 4,28 7,44 2,8 4,16 5,24 0,1 1,10 1,10 -1,14 2,6 -4,12 -12,-25 -54,-150 -54,-174 21,20 27,50 39,78 5,-22 -24,-66 -35,-90 -7,-17 -6,-18 -23,-28l54 179c-17,-6 -12,-4 -21,-17 -5,-8 -9,-15 -15,-22 -9,-13 -23,-31 -39,-32 1,10 5,15 11,23 21,28 35,66 46,76z"/>
   <path class="fil0" d="M642 602c2,-17 -2,-14 13,-19 0,0 6,4 2,12 -5,9 -5,5 -15,7zm38 -3c-2,-7 -7,8 -2,-9 1,-3 3,-5 4,-6 22,-11 6,13 5,14 -2,5 -5,0 -8,1zm33 -12c-1,-3 -8,7 -2,-8 4,-8 -2,-1 6,-5 5,13 -4,12 -4,13zm-17 -10c-24,-12 -16,2 -28,5 -11,3 -9,-5 -12,-13 34,1 38,-8 56,-18 10,-5 -1,1 11,-5l-1 14c-1,1 -2,1 -3,2 -8,3 -8,0 -17,8l-6 7zm-100 -43c33,4 18,21 65,11 46,-10 37,-17 54,-22 2,10 9,8 -15,26 -24,18 -94,23 -103,-16zm154 -17l3 5c-1,8 0,3 -3,7 -7,-6 -11,-5 0,-12zm-21 -108c8,13 14,21 -8,22 0,-7 -1,-3 1,-11 3,-9 6,-10 7,-11zm-1 -11l0 -29c2,-7 2,-5 5,-9 2,3 8,8 6,20 -2,10 -6,14 -10,18zm-72 -39c12,2 19,6 31,6 17,0 21,-8 30,-5 15,67 -23,91 -30,104 21,-4 22,-11 30,-30 28,14 27,-2 26,-22 6,20 23,19 13,93l-18 6c-1,6 -1,14 -1,14 0,1 0,3 -1,4l-3 9c-20,-9 10,-12 -27,-29l-2 -37c-11,17 -7,34 -9,55 -17,5 -53,22 -72,7 -7,-5 -7,3 -11,-29 0,-2 -1,-20 -1,-20 2,-16 -5,-4 7,-14 -18,-7 -16,-1 -24,-18 -18,-39 7,-83 -35,-101 4,-36 -7,-82 2,-113 23,-9 61,-3 88,-2 29,2 60,-3 89,-4 7,24 6,91 2,116 -42,2 -29,-33 -66,-12 -13,7 -13,9 -18,21zm-118 -123l-3 -19c25,-9 33,-2 56,-4 70,-3 1,-10 120,-4 12,1 22,0 34,1 31,1 23,6 25,14 -41,12 -193,-3 -232,12zm39 -33c-1,-47 150,-46 167,-2 -33,5 -107,-2 -131,2 -7,1 -20,8 -36,0zm51 -59c1,-15 1,-13 8,-22 28,-35 49,9 45,29 -22,14 -36,11 -53,-8zm-90 91c1,1 2,1 2,2 0,1 25,10 11,108 -4,31 -33,38 -42,89l2 14c9,-10 8,-57 44,-83 16,30 1,36 -11,59 -13,25 -10,45 -11,77l-8 7 -1 9c24,-7 30,4 41,16l3 0c-9,-25 -4,-15 -26,-26 -4,-37 -2,-72 20,-95l3 23c2,0 9,3 9,3l24 27c10,15 7,36 7,57 -23,13 -27,-2 -13,33l-16 0c4,4 -14,13 19,4 13,2 8,3 22,7 11,3 15,2 26,4 -7,12 -15,18 -4,35 19,4 6,0 18,-2 26,-6 6,0 21,-1 16,-1 12,-4 19,-8 13,-6 18,-3 22,-6 19,-13 -13,-9 27,-27 3,-16 2,-9 -3,-24 17,-6 17,-5 19,-27 1,-12 2,-31 1,-44 0,-14 -2,-27 -6,-39 -13,-47 -25,0 -11,-68 26,8 13,15 30,24 -4,-20 -17,-25 -28,-37l-2 -109c31,-18 52,-8 -8,-53 -13,-10 -32,-18 -55,-20 7,-40 2,-34 -27,-67 -45,35 -35,42 -30,63 -11,2 -20,5 -29,10 -15,8 -9,7 -20,17 -24,21 -33,10 -53,24 1,15 1,15 12,22z"/>
   <path class="fil0" d="M780 1799l-21 -1 28 -157 28 -1c5,38 -17,133 -34,160zm-382 -252c9,-37 36,-13 59,-18l4 14 30 -1c-35,30 -52,-18 -93,5zm425 42c-13,6 -13,4 -28,2 -3,-14 13,-143 17,-165l28 -2 -17 165zm-420 -149c12,17 54,35 76,44 117,46 215,13 317,9l-20 143c-18,-7 -72,-72 -77,-85l51 -11c-14,-12 -115,26 -204,10 -38,-7 -140,-44 -168,-60 -23,-14 -33,-19 -47,-40l-41 -46c-8,-10 -14,-19 -21,-33 -34,-64 -19,-123 -1,-189l-7 11c-1,1 -5,10 -5,12 -20,54 -15,140 20,185l61 72c42,37 57,37 76,53 -18,20 -25,11 -27,49 46,-6 71,0 114,2 40,2 79,0 119,1 61,2 51,0 83,39 10,12 43,54 56,56 -14,-11 -30,-35 -44,-51 -14,-16 -41,-42 -36,-57 17,2 14,8 29,23 17,17 65,60 68,76 6,29 -26,124 -25,159 22,-7 16,-4 40,3 4,-45 45,-134 35,-181l-35 -2 3 -31c19,-6 20,1 39,1l12 -103 78 -2c3,-26 -6,-1 -2,-15 25,2 90,5 106,-8 -9,-7 -63,-15 -79,-19 -27,-7 -45,-19 -72,-23l50 24c33,13 40,5 55,19 -40,7 -51,0 -89,-4l0 11c2,18 2,-10 3,10 -20,3 -30,4 -46,-5l5 -71 -44 2 -8 64c-46,11 -168,23 -219,18 -83,-8 -113,-20 -176,-60z"/>
   <path class="fil0" d="M1051 951c8,38 -66,185 -112,227 -15,14 -5,-1 -13,17 41,-18 99,-132 116,-175 15,-40 15,-62 32,-68 14,23 -46,132 -54,151 -26,59 -21,51 -57,100 -9,12 -14,22 -26,27 -8,-16 -21,-65 -51,-97 0,16 32,43 44,106 16,83 -19,104 -16,131 18,-2 33,-12 43,-25l-28 9c1,-16 9,-39 12,-55 13,-77 -28,-17 36,-101 33,-44 52,-90 76,-144 16,-38 28,-62 41,-103 79,-9 63,-21 96,-27l-20 68c2,0 3,-3 3,-2 1,3 42,-81 32,-96 -14,9 0,8 -24,24 -13,8 -20,10 -35,15 -49,16 -117,17 -167,-6 -15,-7 -51,-32 -54,-40 2,27 80,65 128,66z"/>
   <path class="fil0" d="M133 453c-4,-5 -3,7 -7,-11 -5,-23 0,-6 3,-12 6,4 21,8 4,23zm25 -18l-13 1c1,-14 1,-13 9,-24l5 23zm-45 34c-7,-12 -5,-21 -12,-33 -4,-7 -11,-12 -15,-23 30,0 50,43 27,56zm-47 -50c43,8 59,69 -17,82 -59,10 -54,-79 -18,-95 -4,24 -15,35 7,49 12,-7 21,-23 28,-36zm50 -3c-13,-3 -14,-3 -20,-18 15,-9 20,4 20,18zm50 -8c-11,-6 -6,1 -13,-16 24,4 14,-8 13,16zm-8 28c8,-4 1,3 7,-6 7,-10 4,-17 14,-30 18,4 24,10 42,13 -4,-17 -24,-41 -38,-64 -7,-12 -5,-12 -17,-17 1,6 2,14 5,20 6,12 -1,0 6,7 7,7 22,18 28,38 -28,-1 -27,-10 -27,-38l-8 24c-36,5 -54,-7 -83,14l-54 44c2,-21 9,-35 13,-51 -45,-1 -70,97 -8,116 19,6 81,-27 96,-38 13,-10 21,-15 25,-34z"/>
   <path class="fil0" d="M589 352c5,-35 42,-20 55,-16 -2,17 -8,6 -23,5 -14,-1 -20,7 -32,12zm107 -67c5,10 14,20 14,30l-33 2c-2,-5 -4,-10 -7,-17 -1,-3 -2,-6 -4,-9l-3 -6c-1,1 -5,2 -6,3l-10 7c-3,3 -6,15 -7,20 3,3 3,3 8,7 4,3 3,2 7,4 -25,-3 -11,-17 -21,-35l-4 12c0,1 -1,14 -1,18 -24,-1 -20,3 -39,9 2,-18 4,-25 15,-35 48,-40 66,-15 91,-9zm0 0c-57,-49 -120,1 -115,75 38,19 33,11 63,-2l1 27c-7,1 -7,-2 -13,3 -18,17 0,-11 -3,5 15,6 34,7 41,-8 -17,-8 16,4 -7,-1 -8,-2 -3,2 -10,-3l1 -46c14,-3 21,-9 30,-10 21,-4 17,5 34,1 3,-20 -6,-34 -23,-40z"/>
   <path class="fil0" d="M960 205c6,-44 71,-115 104,-126 -11,21 -45,57 -64,83 -12,16 -26,39 -40,43zm31 -114c9,-5 10,-7 17,-13 -5,17 -7,16 -14,29l-40 89c-6,18 -36,120 -33,127 12,-18 17,-48 24,-70 9,-30 39,-62 61,-84 12,-11 18,-12 28,-22 20,-19 -1,-8 39,-36l13 -11c-14,1 -46,28 -47,29 1,-10 13,-23 23,-34 10,-12 20,-24 26,-40 -31,12 -61,48 -88,64 9,-34 30,-47 34,-78 -16,6 -38,39 -42,50z"/>
   <path class="fil0" d="M539 751c16,-8 24,-23 45,-26 4,56 -11,180 64,164 78,-16 66,-104 71,-162 13,0 9,5 20,-2l-21 -12c0,-18 -1,-36 -1,-54 -1,-39 3,-29 -3,-47 0,-1 -1,-2 -1,-3 -22,49 42,246 -64,272 -59,15 -55,-65 -56,-110l-5 -170c-13,15 -4,29 -4,54 0,18 -2,38 -3,56 -13,11 -36,21 -43,40z"/>
   <path class="fil0" d="M683 703c-20,0 -39,-6 -52,10 1,0 2,0 2,1l7 0c14,-3 17,-10 41,0 10,35 2,99 -28,132l-23 1c-22,-40 -5,-192 -14,-221 0,-1 -1,-2 -1,-3 -7,15 -5,105 -4,129 2,42 -9,92 29,104 68,5 54,-225 47,-236l-3 85z"/>
   <path class="fil0" d="M141 137c-4,-11 -5,-7 -8,-20 15,-11 23,-12 19,15l-11 5zm-30 -29c-3,-13 -2,-17 5,-31 14,2 16,0 27,7 -1,21 -18,32 -32,25zm30 29c-4,26 -4,20 -16,38 -6,10 -14,24 -18,37l15 -19c9,-17 24,-49 40,-59 7,6 28,37 35,47 22,31 12,44 33,52 3,-15 0,-12 -8,-24 -19,-27 -70,-101 -74,-130l-38 -13 -8 41c2,4 29,26 40,29z"/>
   <path class="fil0" d="M1086 100l3 6c-51,44 -126,159 -155,217 13,-6 7,-3 13,-14 5,-10 6,-9 12,-17 20,-28 14,-33 46,-71 9,-11 17,-23 25,-37 10,-15 14,-20 25,-33 47,-57 26,-26 59,-57 9,-8 5,-7 15,-14 11,-7 10,-1 16,-18 -21,4 -52,22 -59,38z"/>
   <path class="fil0" d="M847 1391c-21,-2 -14,-5 -32,-9 1,-30 6,-118 19,-139l25 -1 -11 149zm5 8c2,-29 2,-58 5,-85 3,-27 9,-53 9,-80l-42 1c-2,30 -20,121 -20,153 57,6 21,13 47,11z"/>
   <path class="fil0" d="M759 1925l-26 -1c24,-83 5,-95 42,-93 0,33 -11,64 -16,94zm8 7c6,-24 23,-85 14,-107l-32 1c-9,17 -20,84 -21,104l39 2z"/>
   <path class="fil0" d="M780 386c0,4 22,107 11,128l-14 12 11 10c17,-10 6,-6 29,-12l17 14c7,-9 9,-25 10,-39 -16,3 -15,3 -30,3l-2 13c-9,18 6,-1 -6,6 -14,-22 -1,-90 -16,-122l-9 -12z"/>
   <path class="fil0" d="M639 968c11,-13 19,-25 20,-48 -15,-12 -15,-12 -37,-9 -11,26 -3,46 18,56z"/>
   <path class="fil0" d="M567 1179c-4,-26 -5,-55 23,-57 32,-3 38,24 36,49 -22,18 -28,17 -59,9zm-10 -42c-10,75 61,63 74,33 10,-25 -8,-45 -24,-53 -25,-12 -38,10 -50,20z"/>
   <path class="fil0" d="M639 968c-20,-10 -28,-31 -18,-56 22,-4 22,-4 37,9 0,22 -9,35 -20,48zm-1 14c7,-5 4,0 9,-9 1,-1 4,-8 5,-11 4,-8 11,-15 14,-24 15,-49 -74,-47 -56,3l29 40z"/>
   <path class="fil0" d="M640 437l30 0 11 -5 1 -20c-24,-11 -36,-14 -53,11 4,8 3,9 11,14z"/>
   <path class="fil0" d="M697 1268c-20,2 -43,15 -58,18 -24,5 -41,-13 -57,-24l176 104c-1,-1 -2,-3 -3,-4 -9,-12 -101,-62 -112,-66 22,-7 15,-4 31,-13 27,-15 13,4 22,-15z"/>
   <path class="fil0" d="M670 436l-30 0c6,5 -8,6 17,6 -3,4 -13,8 4,17 -16,5 -10,-3 -28,23 28,2 24,1 49,-2 -15,-14 -4,-6 -37,-2 3,-3 2,-3 8,-6l15 -7c1,0 2,-1 3,-2 1,-2 2,-2 4,-2l-5 -24z"/>
   <path class="fil0" d="M48 446c-3,39 38,36 31,2 -4,-20 -30,-3 -31,-2z"/>
   <path class="fil0" d="M832 774c1,-20 -6,-31 -13,-47 -8,-18 -8,-32 -24,-40 4,17 4,8 10,22 4,8 4,17 7,26 9,37 12,30 21,39z"/>
   <path class="fil0" d="M576 1138c-1,20 0,23 14,30l19 -9 -3 -22 -30 2z"/>
   <path class="fil0" d="M966 514c16,-8 14,-6 20,-25l-6 -6c-13,-15 -1,-11 -18,-10 -8,17 -3,29 4,40z"/>
   <path class="fil0" d="M799 644c3,22 4,24 18,34 8,-9 11,-21 11,-35l-29 1z"/>
   <path class="fil0" d="M528 562c-2,-12 0,-11 7,-17 12,5 5,-2 10,10 -7,9 -2,9 -17,7zm-1 8c19,0 19,-1 27,-13 -4,-19 -4,-21 -25,-24 -12,16 -11,21 -2,36z"/>
   <path class="fil0" d="M361 695l0 -22c11,2 9,2 15,7 -4,10 -3,12 -15,15zm-5 3c20,10 23,1 28,-14 -6,-13 -7,-15 -19,-20 -13,9 -19,14 -9,34z"/>
   <path class="fil0" d="M1021 407c-2,17 -3,16 8,27 13,-5 23,-11 19,-31l-27 4z"/>
   <path class="fil0" d="M953 856c12,-10 15,-10 18,-27 -8,-3 -18,-6 -29,-5 -1,19 1,19 11,32z"/>
   <path class="fil0" d="M949 717c14,-6 19,-12 21,-29 -20,3 0,10 -28,-3 -4,16 1,23 7,32z"/>
   <path class="fil0" d="M987 623c15,-5 4,2 14,-11 7,-9 6,-7 10,-18 -21,3 -8,5 -30,-2 1,24 -2,20 6,32z"/>
   <path class="fil0" d="M622 596l-14 3c4,-23 -3,-13 10,-17l4 15zm-21 -16c-1,19 5,33 21,16 8,-3 6,9 6,-11 0,-1 -4,-13 -4,-14l-23 9z"/>
   <path class="fil0" d="M684 1153c17,-3 16,-3 8,-16 -13,5 -13,4 -8,16z"/>
   <path class="fil0" d="M353 556c13,2 14,3 15,-12 -12,-1 -14,-1 -15,12z"/>
  </g>
 </g>
</svg>
