<?xml version="1.0" ?><svg height="48" id="svg8" version="1.1" viewBox="0 0 12.7 12.7" width="48" xmlns="http://www.w3.org/2000/svg" xmlns:cc="http://creativecommons.org/ns#" xmlns:dc="http://purl.org/dc/elements/1.1/" xmlns:inkscape="http://www.inkscape.org/namespaces/inkscape" xmlns:rdf="http://www.w3.org/1999/02/22-rdf-syntax-ns#" xmlns:sodipodi="http://sodipodi.sourceforge.net/DTD/sodipodi-0.dtd" xmlns:svg="http://www.w3.org/2000/svg"><defs id="defs2"/><g id="layer2" style="display:inline"><path d="m 3.9460124,0.5296835 c -1.883051,0 -3.41632898,1.533279 -3.41632898,3.416329 v 4.810559 c 0,1.8830515 1.53327798,3.4137455 3.41632898,3.4137455 h 4.810559 c 1.8830496,0 3.4137446,-1.530694 3.4137446,-3.4137455 v -4.810559 c 0,-1.88305 -1.530695,-3.416329 -3.4137446,-3.416329 z m 0,1.058851 h 4.810559 c 1.3150396,0 2.3574776,1.042438 2.3574776,2.357478 v 4.810559 c 0,1.3150415 -1.042438,2.3574795 -2.3574776,2.3574795 h -4.810559 c -1.315041,0 -2.357479,-1.042438 -2.357479,-2.3574795 v -4.810559 c 0,-1.31504 1.042438,-2.357478 2.357479,-2.357478 z m 5.385201,1.267622 c -0.292251,0 -0.529167,0.236916 -0.529167,0.529167 0,0.292251 0.236916,0.529167 0.529167,0.529167 0.29225,0 0.529166,-0.236916 0.529166,-0.529167 0,-0.146126 -0.05927,-0.278377 -0.155029,-0.374137 -0.09576,-0.09576 -0.228012,-0.15503 -0.374137,-0.15503 z m -2.979663,0.849044 c -1.454986,0 -2.646351,1.191365 -2.646351,2.64635 0,1.454986 1.191365,2.644283 2.646351,2.644283 1.454985,0 2.644283,-1.189297 2.644283,-2.644283 0,-1.454985 -1.189298,-2.64635 -2.644283,-2.64635 z m 0,1.058333 c 0.883019,0 1.588016,0.704998 1.588016,1.588017 0,0.883019 -0.704997,1.588017 -1.588016,1.588017 -0.88302,0 -1.588017,-0.704998 -1.588017,-1.588017 0,-0.883019 0.704997,-1.588017 1.588017,-1.588017 z" id="rect1022" style="color:#000000;font-style:normal;font-variant:normal;font-weight:normal;font-stretch:normal;font-size:medium;line-height:normal;font-family:sans-serif;font-variant-ligatures:normal;font-variant-position:normal;font-variant-caps:normal;font-variant-numeric:normal;font-variant-alternates:normal;font-feature-settings:normal;text-indent:0;text-align:start;text-decoration:none;text-decoration-line:none;text-decoration-style:solid;text-decoration-color:#000000;letter-spacing:normal;word-spacing:normal;text-transform:none;writing-mode:lr-tb;direction:ltr;text-orientation:mixed;dominant-baseline:auto;baseline-shift:baseline;text-anchor:start;white-space:normal;shape-padding:0;clip-rule:nonzero;display:inline;overflow:visible;visibility:visible;opacity:1;isolation:auto;mix-blend-mode:normal;color-interpolation:sRGB;color-interpolation-filters:linearRGB;solid-color:#000000;solid-opacity:1;vector-effect:none;fill:#000000;fill-opacity:1;fill-rule:nonzero;stroke:none;stroke-width:1.05833328;stroke-linecap:butt;stroke-linejoin:round;stroke-miterlimit:4;stroke-dasharray:none;stroke-dashoffset:0;stroke-opacity:1;paint-order:normal;color-rendering:auto;image-rendering:auto;shape-rendering:auto;text-rendering:auto;enable-background:accumulate"/></g></svg>