<?xml version="1.0" ?><svg height="48" id="svg8" version="1.1" viewBox="0 0 12.7 12.7" width="48" xmlns="http://www.w3.org/2000/svg" xmlns:cc="http://creativecommons.org/ns#" xmlns:dc="http://purl.org/dc/elements/1.1/" xmlns:inkscape="http://www.inkscape.org/namespaces/inkscape" xmlns:rdf="http://www.w3.org/1999/02/22-rdf-syntax-ns#" xmlns:sodipodi="http://sodipodi.sourceforge.net/DTD/sodipodi-0.dtd" xmlns:svg="http://www.w3.org/2000/svg"><defs id="defs2"/><g id="layer2" style="display:inline"><path d="m 2.0200249,0.5296835 c -0.81702,0 -1.49033998,0.673328 -1.49033998,1.490348 v 8.6599375 c 0,0.81702 0.67331998,1.490348 1.49033998,1.490348 h 8.6599401 c 0.81702,0 1.49035,-0.673328 1.49035,-1.490348 V 2.0200315 c 0,-0.81702 -0.67333,-1.490348 -1.49035,-1.490348 z m 0,1.05885 h 8.6599401 c 0.24901,0 0.43408,0.182488 0.43408,0.431498 v 8.6599375 c 0,0.249009 -0.18507,0.434082 -0.43408,0.434082 H 2.0200249 c -0.24901,0 -0.43149,-0.185074 -0.43149,-0.434082 V 2.0200315 c 0,-0.24901 0.18248,-0.431498 0.43149,-0.431498 z m 1.68414,1.058333 c -0.29225,0 -0.52917,0.236916 -0.52917,0.529167 0,0.29225 0.23692,0.529167 0.52917,0.529167 0.29225,0 0.52917,-0.236917 0.52917,-0.529167 0,-0.146125 -0.0587,-0.278378 -0.15452,-0.374137 -0.0958,-0.09576 -0.22853,-0.15503 -0.37465,-0.15503 z m -0.52917,2.116667 v 5.2921835 h 1.05834 V 4.7635335 Z m 2.11667,0 v 5.2921835 h 1.05833 V 7.4083335 c 0,-0.882672 0.70446,-1.587459 1.58699,-1.588017 l -10e-4,0.0015 h 10e-4 c 0.29864,-1.16e-4 0.52965,0.230524 0.52968,0.529167 v 3.623034 h 1.05833 v -3.622984 c -8e-5,-0.870715 -0.7173,-1.58784 -1.58801,-1.5875 -0.5951,2.34e-4 -1.14367,0.201889 -1.58699,0.536918 v -0.536918 z" id="path5922" style="color:#000000;font-style:normal;font-variant:normal;font-weight:normal;font-stretch:normal;font-size:medium;line-height:normal;font-family:sans-serif;font-variant-ligatures:normal;font-variant-position:normal;font-variant-caps:normal;font-variant-numeric:normal;font-variant-alternates:normal;font-feature-settings:normal;text-indent:0;text-align:start;text-decoration:none;text-decoration-line:none;text-decoration-style:solid;text-decoration-color:#000000;letter-spacing:normal;word-spacing:normal;text-transform:none;writing-mode:lr-tb;direction:ltr;text-orientation:mixed;dominant-baseline:auto;baseline-shift:baseline;text-anchor:start;white-space:normal;shape-padding:0;clip-rule:nonzero;display:inline;overflow:visible;visibility:visible;opacity:1;isolation:auto;mix-blend-mode:normal;color-interpolation:sRGB;color-interpolation-filters:linearRGB;solid-color:#000000;solid-opacity:1;vector-effect:none;fill:#000000;fill-opacity:1;fill-rule:nonzero;stroke:none;stroke-width:1.0583334;stroke-linecap:butt;stroke-linejoin:miter;stroke-miterlimit:4;stroke-dasharray:none;stroke-dashoffset:0;stroke-opacity:1;color-rendering:auto;image-rendering:auto;shape-rendering:auto;text-rendering:auto;enable-background:accumulate"/></g></svg>